<?xml version="1.0" standalone="no"?>
<!DOCTYPE svg PUBLIC "-//W3C//DTD SVG 20010904//EN"
 "http://www.w3.org/TR/2001/REC-SVG-20010904/DTD/svg10.dtd">
<svg version="1.0" xmlns="http://www.w3.org/2000/svg"
 width="129.000000pt" height="129.000000pt" viewBox="0 0 129.000000 129.000000"
 preserveAspectRatio="xMidYMid meet">
<metadata>
Created by potrace 1.14, written by Peter Selinger 2001-2017
</metadata>
<g transform="translate(0.000000,129.000000) scale(0.100000,-0.100000)"
fill="#000000" stroke="none">
<path d="M1045 1148 c-2 -7 -6 -33 -9 -58 -11 -103 -38 -130 -129 -133 -42 -2
-53 -8 -24 -13 108 -19 139 -48 153 -149 4 -28 7 -56 7 -62 0 -7 3 -13 7 -13
3 0 11 32 18 71 15 89 24 104 70 128 39 20 43 21 68 21 31 0 4 16 -32 18 -49
4 -90 26 -97 54 -8 33 -21 132 -19 141 3 12 -8 8 -13 -5z"/>
<path d="M675 1047 c-7 -35 -35 -64 -49 -50 -3 3 -6 2 -6 -4 0 -5 11 -16 25
-23 14 -7 26 -19 26 -27 1 -7 3 -17 4 -23 1 -5 3 -18 4 -27 2 -24 9 -12 16 27
6 34 29 59 55 60 13 0 13 2 0 9 -8 6 -17 8 -21 5 -11 -6 -31 24 -39 59 l-7 32
-8 -38z"/>
<path d="M423 505 c-269 -270 -403 -411 -403 -425 0 -27 28 -55 61 -63 22 -6
44 13 200 171 97 97 280 279 407 403 128 125 232 233 232 241 0 18 -62 78 -80
78 -8 -1 -196 -183 -417 -405z"/>
<path d="M957 773 c-4 -3 -7 -16 -7 -27 -1 -32 -26 -59 -50 -53 -11 3 -23 1
-26 -4 -3 -5 5 -9 17 -9 27 0 59 -36 59 -67 0 -12 5 -23 10 -23 6 0 10 10 10
23 1 27 18 50 45 61 18 8 18 9 -8 18 -20 7 -30 19 -35 41 -3 18 -5 35 -4 40 3
9 -3 9 -11 0z"/>
</g>
</svg>
